<?xml version="1.0" standalone="no"?>
<!DOCTYPE svg PUBLIC "-//W3C//DTD SVG 1.1//EN" "http://www.w3.org/Graphics/SVG/1.1/DTD/svg11.dtd">
<svg xmlns="http://www.w3.org/2000/svg">
<metadata>Copyright (C) 2016 by original authors @ fontello.com</metadata>
<defs>
<font id="icons" horiz-adv-x="1000" >
<font-face font-family="icons" font-weight="400" font-stretch="normal" units-per-em="1000" ascent="850" descent="-150" />
<missing-glyph horiz-adv-x="1000" />
<glyph glyph-name="account" unicode="&#xe800;" d="M500 913c-275 0-500-225-500-500 0-260 209-501 500-501 135 0 262 53 356 149 93 94 144 219 144 352 0 275-225 500-500 500z m-307-840c43 23 106 45 168 68 22 8 43 16 63 24 8 1 14 9 14 19l0 104c0 7-6 15-14 19-2 0-49 20-49 106 0 11-8 21-19 21-2 0-6 8-6 20 0 11 4 19 4 21 11 0 21 10 21 22 0 3-2 9-6 21-4 22-21 82-6 100 6 5 18 5 30 4 9-2 21 3 23 15 6 28 55 47 115 47 61 0 110-19 116-47 9-39-8-92-16-117-4-12-6-18-6-23 0-12 8-22 20-22 2-2 5-10 5-21 0-12-3-20-3-20-12 0-22-10-22-21 0-86-47-106-49-106-8-2-13-10-13-19l0-104c0-10 5-18 13-19 22-10 45-18 67-26 64-23 123-45 164-66-84-77-192-120-307-120-115 0-223 43-307 120z m645 29c-43 27-107 51-180 76-17 6-35 14-54 20l0 76c21 14 58 47 62 123 16 10 27 31 27 57 0 25-9 44-23 54 12 32 29 90 18 139-16 59-94 78-157 78-56 0-125-16-148-60-22 1-39-6-51-18-31-35-14-102-2-139-14-10-23-29-23-54 0-26 11-47 27-57 4-76 41-109 63-123l0-76c-18-6-34-12-51-18-67-25-137-51-184-78-78 86-121 195-121 311 0 252 207 459 459 459 252 0 459-207 459-459 0-116-43-225-121-311z" horiz-adv-x="1000" />

<glyph glyph-name="add" unicode="&#xe801;" d="M938 454l-438 0 0 437c0 12-10 22-21 22-12 0-20-10-20-22l0-437-437 0c-12 0-22-8-22-20 0-12 10-21 22-21l437 0 0-438c0-12 8-22 20-22 11 0 21 10 21 22l0 438 438 0c11 0 21 9 21 21 0 12-10 20-21 20z" horiz-adv-x="1000" />

<glyph glyph-name="add-box" unicode="&#xe802;" d="M729 454l-229 0 0 230c0 12-10 20-21 20-12 0-20-8-20-20l0-230-230 0c-12 0-20-8-20-20 0-12 8-21 20-21l230 0 0-229c0-12 8-21 20-21 11 0 21 9 21 21l0 229 229 0c11 0 21 9 21 21 0 12-10 20-21 20z m-707-501l916 0c11 0 21 10 21 22l0 916c0 12-10 22-21 22l-916 0c-12 0-22-10-22-22l0-916c0-12 10-22 22-22z m19 919l875 0 0-876-875 0z" horiz-adv-x="1000" />

<glyph glyph-name="add-circle" unicode="&#xe803;" d="M479 913c-264 0-479-215-479-479 0-266 215-481 479-481 265 0 480 215 480 481 0 264-215 479-480 479z m0-917c-241 0-438 196-438 438 0 240 197 438 438 438 242 0 437-198 437-438 0-242-195-438-437-438z m250 458l-229 0 0 230c0 12-10 20-21 20-12 0-20-8-20-20l0-230-230 0c-12 0-20-8-20-20 0-12 8-21 20-21l230 0 0-229c0-12 8-21 20-21 11 0 21 9 21 21l0 229 229 0c11 0 21 9 21 21 0 12-10 20-21 20z" horiz-adv-x="1000" />

<glyph glyph-name="arrow-box-down" unicode="&#xe804;" d="M484 272c6-4 10-6 16-6 6 0 10 2 16 6l250 250c7 10 7 21 0 31-10 8-22 8-32 0l-234-236-234 236c-10 8-22 8-32 0-7-10-7-21 0-31z m495 641l-957 0c-12 0-22-10-22-22l0-957c0-12 10-22 22-22l957 0c11 0 21 10 21 22l0 957c0 12-10 22-21 22z m-20-960l-918 0 0 919 918 0z" horiz-adv-x="1000" />

<glyph glyph-name="arrow-box-left" unicode="&#xe805;" d="M979 913l-957 0c-12 0-22-10-22-22l0-957c0-12 10-22 22-22l957 0c11 0 21 10 21 22l0 957c0 12-10 22-21 22z m-20-960l-918 0 0 919 918 0z m-350 194c4-4 10-6 16-6 6 0 10 2 14 6 9 10 9 21 0 29l-235 237 235 234c9 10 9 21 0 29-8 10-20 10-30 0l-250-250c-7-8-7-19 0-29z" horiz-adv-x="1000" />

<glyph glyph-name="arrow-box-right" unicode="&#xe806;" d="M979 913l-957 0c-12 0-22-10-22-22l0-957c0-12 10-22 22-22l957 0c11 0 21 10 21 22l0 957c0 12-10 22-21 22z m-20-960l-918 0 0 919 918 0z m-598 194c4-4 8-6 14-6 6 0 12 2 16 6l250 250c7 10 7 21 0 29l-250 250c-10 10-22 10-30 0-9-8-9-19 0-29l235-234-235-237c-9-8-9-19 0-29z" horiz-adv-x="1000" />

<glyph glyph-name="arrow-box-up" unicode="&#xe807;" d="M979 913l-957 0c-12 0-22-10-22-22l0-957c0-12 10-22 22-22l957 0c11 0 21 10 21 22l0 957c0 12-10 22-21 22z m-20-960l-918 0 0 919 918 0z m-693 319l234 236 234-236c6-4 10-6 16-6 6 0 10 2 16 6 7 10 7 21 0 31l-250 250c-10 8-22 8-32 0l-250-250c-7-10-7-21 0-31 10-8 22-8 32 0z" horiz-adv-x="1000" />

<glyph glyph-name="arrow-circle-down" unicode="&#xe808;" d="M500 913c-275 0-500-225-500-500 0-276 225-501 500-501 275 0 500 225 500 501 0 275-225 500-500 500z m0-960c-252 0-459 208-459 460 0 252 207 459 459 459 252 0 459-207 459-459 0-252-207-460-459-460z m254 616l-254-332-254 332c-8 10-19 12-29 4-10-6-12-20-4-30l271-353c4-4 10-8 16-8 6 0 12 4 16 8l271 353c8 10 6 24-4 30-10 8-21 6-29-4z" horiz-adv-x="1000" />

<glyph glyph-name="arrow-circle-left" unicode="&#xe809;" d="M500 913c-275 0-500-225-500-500 0-276 225-501 500-501 275 0 500 225 500 501 0 275-225 500-500 500z m0-960c-252 0-459 208-459 460 0 252 207 459 459 459 252 0 459-207 459-459 0-252-207-460-459-460z m-174 460l332 253c10 8 12 20 4 30-6 10-19 11-29 4l-354-272c-6-4-7-10-7-15 0-6 1-14 7-18l354-270c4-3 8-3 14-3 5 0 11 1 15 7 8 10 6 22-4 30z" horiz-adv-x="1000" />

<glyph glyph-name="arrow-circle-right" unicode="&#xe80a;" d="M500 913c-275 0-500-225-500-500 0-276 225-501 500-501 275 0 500 225 500 501 0 275-225 500-500 500z m0-960c-252 0-459 208-459 460 0 252 207 459 459 459 252 0 459-207 459-459 0-252-207-460-459-460z m-133 747c-10 7-23 6-29-4-8-10-6-22 4-30l332-253-332-254c-10-8-12-20-4-30 4-6 10-7 16-7 5 0 9 0 13 3l354 270c6 4 10 12 10 18 0 5-4 11-10 15z" horiz-adv-x="1000" />

<glyph glyph-name="arrow-circle-up" unicode="&#xe80b;" d="M500 913c-275 0-500-225-500-500 0-276 225-501 500-501 275 0 500 225 500 501 0 275-225 500-500 500z m0-960c-252 0-459 208-459 460 0 252 207 459 459 459 252 0 459-207 459-459 0-252-207-460-459-460z m16 680c-8 12-24 12-32 0l-271-353c-8-10-6-24 4-30 10-7 21-5 29 4l254 332 254-332c4-6 10-7 18-7 3 0 7 0 11 3 10 6 12 20 4 30z" horiz-adv-x="1000" />

<glyph glyph-name="arrow-down" unicode="&#xe80c;" d="M992 469c-8 8-21 8-29-2l-422-478 0 902c0 12-8 22-19 22-12 0-22-10-22-22l0-902-422 478c-8 10-21 10-29 2-8-8-10-19-2-29l459-520c0-2 0-2 0-2 2 0 4-2 4-4 2 0 2 0 2 0 4-2 6-2 10-2 1 0 5 0 7 2 0 0 2 0 2 0 2 2 4 4 4 4 0 0 2 0 2 2l457 520c8 10 8 21-2 29z" horiz-adv-x="1000" />

<glyph glyph-name="down-1" unicode="&#xe80d;" d="M484 397c6-4 10-6 16-6 6 0 10 2 16 6l478 480c8 8 8 22 0 30-8 8-21 8-29 0l-465-465-465 465c-8 8-21 8-29 0-8-8-8-22 0-30z m481 31l-465-465-465 465c-8 8-21 8-29 0-8-10-8-21 0-31l478-479c6-4 10-6 16-6 6 0 10 2 16 6l478 479c8 10 8 21 0 31-8 8-21 8-29 0z" horiz-adv-x="1000" />

<glyph glyph-name="down" unicode="&#xe80e;" d="M992 700c-8 7-21 6-29-2l-463-526-463 526c-8 8-21 9-29 2-10-8-10-22-2-30l478-543c4-4 10-5 16-5 6 0 12 1 16 5l478 543c8 8 8 22-2 30z" horiz-adv-x="1000" />

<glyph glyph-name="arrow-left" unicode="&#xe80f;" d="M979 413l-903 0 479 421c10 8 10 22 2 30-8 8-20 9-30 2l-519-459c0 0 0 0-2 0 0-2-2-4-4-6 0 0 0 0 0 0-2-4-2-6-2-10 0-2 0-6 2-8 0 0 0-2 0-2 2-2 4-4 4-6 2 0 2 0 2 0l519-457c4-4 10-6 14-6 6 0 12 2 16 8 8 8 8 22-2 30l-479 422 903 0c11 0 21 7 21 19 0 12-10 22-21 22z" horiz-adv-x="1000" />

<glyph glyph-name="left-1" unicode="&#xe810;" d="M529 413l465 464c8 8 8 22 0 30-8 8-21 8-29 0l-481-479c-7-10-7-21 0-31l481-479c4-4 10-6 14-6 5 0 11 2 15 6 8 8 8 22 0 30z m-478 0l465 464c7 8 7 22 0 30-10 8-22 8-32 0l-478-479c-8-10-8-21 0-31l478-479c6-4 10-6 16-6 6 0 10 2 16 6 7 8 7 22 0 30z" horiz-adv-x="1000" />

<glyph glyph-name="left" unicode="&#xe811;" d="M260 413l525 462c8 8 10 22 2 30-8 10-21 10-29 2l-543-479c-4-4-6-10-6-15 0-6 2-12 6-16l543-479c4-4 8-6 14-6 5 0 11 2 15 8 8 8 6 22-2 30z" horiz-adv-x="1000" />

<glyph glyph-name="arrow-right" unicode="&#xe812;" d="M998 381c0 0 0 2 0 2 2 2 2 6 2 8 0 4 0 6-2 10 0 0 0 0 0 0-2 2-4 4-4 6-2 0-2 0-2 0l-519 459c-10 7-22 6-30-2-7-8-7-22 2-30l479-421-902 0c-12 0-22-10-22-22 0-12 10-19 22-19l902 0-479-422c-9-8-9-22-2-30 4-6 10-8 16-8 4 0 10 2 14 6l519 457c0 0 0 0 2 0 0 2 2 4 4 6z" horiz-adv-x="1000" />

<glyph glyph-name="right-1" unicode="&#xe813;" d="M516 428l-481 479c-8 8-21 8-29 0-8-8-8-22 0-30l465-464-465-465c-8-8-8-22 0-30 4-4 10-6 16-6 3 0 9 2 13 6l481 479c7 10 7 21 0 31z m478 0l-478 479c-10 8-22 8-32 0-7-8-7-22 0-30l465-464-465-465c-7-8-7-22 0-30 6-4 10-6 16-6 6 0 10 2 16 6l478 479c8 10 8 21 0 31z" horiz-adv-x="1000" />

<glyph glyph-name="right" unicode="&#xe814;" d="M785 428l-543 479c-8 8-21 8-29-2-8-8-6-22 2-30l525-462-525-463c-8-8-10-22-2-30 4-6 10-8 16-8 5 0 9 2 13 6l543 479c4 4 6 10 6 16 0 5-2 11-6 15z" horiz-adv-x="1000" />

<glyph glyph-name="arrow-up" unicode="&#xe815;" d="M953 385l-459 520c0 0 0 0 0 0-4 6-10 8-15 8-6 0-10-2-14-8-2 0-2 0-2 0l-457-520c-8-10-8-23 2-29 8-8 21-8 29 2l422 478 0-902c0-12 8-22 20-22 11 0 21 10 21 22l0 902 422-478c4-6 10-8 16-8 5 0 9 2 13 6 8 6 10 19 2 29z" horiz-adv-x="1000" />

<glyph glyph-name="up-1" unicode="&#xe816;" d="M516 428c-10 8-22 8-32 0l-478-480c-8-8-8-22 0-30 8-8 21-8 29 0l465 465 465-465c4-4 10-6 14-6 5 0 11 2 15 6 8 8 8 22 0 30z m-481-31l465 465 465-465c4-4 10-6 14-6 5 0 11 2 15 6 8 10 8 21 0 31l-478 479c-10 8-22 8-32 0l-478-479c-8-10-8-21 0-31 8-8 21-8 29 0z" horiz-adv-x="1000" />

<glyph glyph-name="up" unicode="&#xe817;" d="M994 155l-478 543c-8 8-24 8-32 0l-478-543c-8-8-8-22 2-30 8-7 21-5 29 2l463 526 463-526c4-4 10-5 16-5 5 0 9 1 13 3 10 8 10 22 2 30z" horiz-adv-x="1000" />

<glyph glyph-name="at-sign" unicode="&#xe818;" d="M500 913c-275 0-500-225-500-500 0-276 225-501 500-501 102 0 199 30 283 88 10 6 12 20 4 28-6 10-19 12-27 6-76-53-166-81-260-81-252 0-459 208-459 460 0 252 207 459 459 459 252 0 459-207 459-459l0-41c0-71-57-125-125-125-70 0-125 54-125 125l0 41c0 115-94 209-209 209-115 0-209-94-209-209 0-116 94-209 209-209 76 0 143 43 180 103 23-60 84-103 154-103 92 0 166 76 166 168l0 41c0 275-225 500-500 500z m0-666c-92 0-166 74-166 166 0 91 74 166 166 166 92 0 166-75 166-166 0-92-74-166-166-166z" horiz-adv-x="1000" />

<glyph glyph-name="bathroom" unicode="&#xe819;" d="M979 329l-63 0 0 461c0 41-23 78-60 95-40 16-83 10-114-19l-23-24c-47 31-113 28-154-13l-24-24c-8-8-8-21 0-29l141-139c4-4 9-6 15-6 4 0 10 2 14 6l23 24c41 41 45 105 14 152l24 23c17 16 43 20 66 10 18-8 37-27 37-56l0-461-291 0 0 21c0 35-29 63-62 63l-209 0c-36 0-63-28-63-63l0-21-228 0c-12 0-22-8-22-20 0-219 178-397 397-397l207 0c218 0 396 178 396 397 0 12-10 20-21 20z m-274 361l-8-10-111 111 8 8c31 30 82 30 111 0 29-29 29-80 0-109z m-414-340c0 12 10 22 22 22l209 0c11 0 19-10 19-22l0-228-250 0z m313-397l-207 0c-190 0-344 149-354 335l207 0 0-188c0-12 10-21 22-21l291 0c11 0 21 9 21 21l0 188 373 0c-10-186-164-335-353-335z m-204 754c2 0 6 0 8 2l76 36c10 3 16 17 10 27-4 10-17 16-27 10l-76-35c-10-4-16-16-10-28 4-8 12-12 19-12z m229-228c8 0 16 4 19 12l34 76c4 12 0 23-12 27-10 6-22 0-27-10l-34-76c-3-11 2-23 12-27 2-2 6-2 8-2z m-152 98c4-4 9-6 15-6 4 0 10 2 14 6l59 58c9 8 9 22 0 30-8 7-20 7-30 0l-58-59c-8-8-8-22 0-29z" horiz-adv-x="1000" />

<glyph glyph-name="bedroom" unicode="&#xe81a;" d="M1000 229c-2 2 0 2-2 2l-164 498 0 100c0 46-37 84-84 84l-500 0c-47 0-84-38-84-84l0-100-164-498c-2 0 0 0-2-2 0 0 0-2 0-4l0-187c0-47 37-85 84-85l41 0 0-19c0-12 10-22 22-22 11 0 19 10 19 22l0 19 668 0 0-19c0-12 8-22 20-22 11 0 21 10 21 22l0 19 41 0c47 0 84 38 84 85l0 187c0 2 0 4 0 4z m-797 475l67 0-18-55c-4-8-2-14 2-20 4-6 10-7 18-7l457 0c0 0 2 0 2 0 11 0 19 7 19 19 0 6 0 10-2 12l-17 51 66 0 43-125-680 0z m96-41l29 84 344 0 29-84z m-49 209l500 0c23 0 41-20 41-43l0-82-74 0-10 27c-2 8-10 14-19 14l-375 0c-10 0-18-6-20-14l-10-27-74 0 0 82c0 23 18 43 41 43z m-103-334l707 0 97-291-902 0z m812-500c0-24-19-42-43-42l-832 0c-23 0-43 18-43 42l0 166 918 0z" horiz-adv-x="1000" />

<glyph glyph-name="bin" unicode="&#xe81b;" d="M959 788l-293 0 0 103c0 12-8 22-19 22l-334 0c-12 0-22-10-22-22l0-103-250 0c-12 0-19-10-19-22 0-12 7-19 19-19l84 0 0-813c0-12 10-22 22-22l666 0c11 0 21 10 21 22l0 813 125 0c12 0 20 7 20 19 0 12-8 22-20 22z m-625 84l291 0 0-84-291 0z m457-919l-625 0 0 794 625 0z m-478 688c-12 0-22-8-22-19l0-500c0-12 10-22 22-22 11 0 21 10 21 22l0 500c0 11-10 19-21 19z m166 0c-12 0-20-8-20-19l0-500c0-12 8-22 20-22 11 0 21 10 21 22l0 500c0 11-10 19-21 19z m146-19l0-500c0-12 10-22 22-22 11 0 19 10 19 22l0 500c0 11-8 19-19 19-12 0-22-8-22-19z" horiz-adv-x="1000" />

<glyph glyph-name="calendar" unicode="&#xe81c;" d="M979 829l-145 0 0 62c0 12-10 22-21 22l-125 0c-12 0-22-10-22-22l0-62-332 0 0 62c0 12-10 22-21 22l-125 0c-12 0-22-10-22-22l0-62-144 0c-12 0-22-8-22-20l0-875c0-12 10-22 22-22l957 0c11 0 21 10 21 22l0 875c0 12-10 20-21 20z m-270 43l82 0 0-125-82 0z m-500 0l82 0 0-125-82 0z m-43-84l0-63c0-12 10-21 22-21l125 0c11 0 21 9 21 21l0 63 332 0 0-63c0-12 10-21 22-21l125 0c11 0 21 9 21 21l0 63 125 0 0-166-918 0 0 166z m-125-835l0 626 918 0 0-626z m438 169l-63 0 0 312c0 8-4 16-12 20-7 2-17 0-23-6l-84-82c-8-10-8-22 0-32 10-7 21-7 31 0l47 49 0-261-62 0c-12 0-22-10-22-22 0-12 10-21 22-21l166 0c11 0 21 9 21 21 0 12-10 22-21 22z m230 332l-209 0c-12 0-21-8-21-20l0-43c0-12 9-19 21-19 12 0 22 7 22 19l0 22 156 0-47-125-68 0c-12 0-22-10-22-22 0-12 10-19 22-19l52 0-50-139c-4-12 0-24 11-27 10-4 24 1 28 11l56 155 28 0c11 0 21 7 21 19 0 12-10 22-21 22l-12 0 53 138c2 6 0 14-4 20-4 6-10 8-16 8z" horiz-adv-x="1000" />

<glyph glyph-name="check" unicode="&#xe81d;" d="M277-82l-271 272c-8 8-8 21 0 29 8 8 21 8 29 0l254-254 674 940c6 8 19 10 29 4 8-6 10-20 4-30l-687-959c-8-10-24-11-32-2z" horiz-adv-x="1000" />

<glyph glyph-name="check-box" unicode="&#xe81f;" d="M381 252c8-7 21-7 29 0l313 291c8 8 8 22 0 30-8 8-20 8-30 0l-296-278-90 90c-8 8-22 8-30 0-7-8-7-21 0-29z m598 661l-957 0c-12 0-22-10-22-22l0-957c0-12 10-22 22-22l957 0c11 0 21 10 21 22l0 957c0 12-10 22-21 22z m-20-960l-918 0 0 919 918 0z" horiz-adv-x="1000" />

<glyph glyph-name="check-circle" unicode="&#xe820;" d="M693 573l-296-278-90 90c-8 8-22 8-30 0-7-8-7-21 0-29l104-104c8-7 21-7 29 0l313 291c8 8 8 22 0 30-8 8-20 8-30 0z m-193 340c-275 0-500-225-500-500 0-276 225-501 500-501 275 0 500 225 500 501 0 275-225 500-500 500z m0-960c-252 0-459 208-459 460 0 252 207 459 459 459 252 0 459-207 459-459 0-252-207-460-459-460z" horiz-adv-x="1000" />

<glyph glyph-name="play" unicode="&#xe821;" d="M22-88c-4 0-8 2-12 4-6 4-10 10-10 18l0 957c0 8 4 14 10 18 6 4 13 6 19 2l959-479c8-4 12-12 12-19 0-8-4-16-12-20l-959-479c-2-2-6-2-7-2z m19 946l0-891 891 446z" horiz-adv-x="1000" />

<glyph glyph-name="cross-over" unicode="&#xe822;" d="M22 622l228 0c109 0 168-133 168-135 4-10 18-16 27-10 12 4 16 16 12 27-4 6-70 159-207 159l-228 0c-12 0-22-10-22-22 0-12 10-19 22-19z m728 0l190 0-61-94c-6-10-4-22 6-30 10-5 21-3 29 6l82 125c6 8 6 18 0 24l-82 125c-8 10-19 12-29 6-10-6-12-20-6-30l61-91-190 0c-115 0-193-122-268-239-68-109-140-220-232-220l-228 0c-12 0-22-8-22-20 0-12 10-21 22-21l228 0c115 0 193 121 268 238 68 107 140 221 232 221z m164-301c-8 8-19 11-29 6-10-8-12-20-6-30l61-93-190 0c-111 0-189 115-191 117-6 8-20 11-30 4-7-6-11-18-6-28 4-6 92-134 227-134l190 0-61-92c-6-10-4-24 6-30 10-5 21-3 29 6l82 125c6 6 6 16 0 24z" horiz-adv-x="1000" />

<glyph glyph-name="crosshair" unicode="&#xe824;" d="M479 551c11 0 21 10 21 22l0 318c0 12-10 22-21 22-12 0-20-10-20-22l0-318c0-12 8-22 20-22z m-139-97l-318 0c-12 0-22-8-22-20 0-12 10-21 22-21l318 0c12 0 21 9 21 21 0 12-9 20-21 20z m139-139c-12 0-20-10-20-22l0-318c0-12 8-22 20-22 11 0 21 10 21 22l0 318c0 12-10 22-21 22z m459 139l-319 0c-12 0-21-8-21-20 0-12 9-21 21-21l319 0c11 0 21 9 21 21 0 12-10 20-21 20z m-418-20c0-23-18-41-41-41-22 0-41 18-41 41 0 22 19 41 41 41 23 0 41-19 41-41z" horiz-adv-x="1000" />

<glyph glyph-name="room" unicode="&#xe825;" d="M854 38l-63 0 0 853c0 12-8 22-19 22l-584 0c-12 0-22-10-22-22l0-853-62 0c-12 0-20-10-20-22l0-82c0-12 8-22 20-22l750 0c11 0 21 10 21 22l0 82c0 12-10 22-21 22z m-645 834l541 0 0-834-541 0z m625-919l-709 0 0 43 709 0z m-164 626c-12 2-22-6-23-16-2-12 5-23 15-25 2 0 4 0 4 0l0-125c-12 0-19-10-19-22 0-12 7-19 19-19 22 0 43 13 43 41l0 125c0 23-19 39-39 41z" horiz-adv-x="1000" />

<glyph glyph-name="email" unicode="&#xe826;" d="M875 747l-750 0c-47 0-84-38-84-84l0-459c0-45 37-82 84-82l750 0c47 0 84 37 84 82l0 459c0 46-37 84-84 84z m0-43c2 0 4 0 6 0l-381-307-381 307c2 0 4 0 6 0z m41-500c0-22-18-41-41-41l-750 0c-23 0-41 19-41 41l0 459c0 3 0 7 2 13l400-322c4-2 10-4 14-4 4 0 10 2 14 4l400 322c2-6 2-10 2-13z" horiz-adv-x="1000" />

<glyph glyph-name="expand" unicode="&#xe827;" d="M340 282l-299-299 0 158c0 12-8 22-19 22-12 0-22-10-22-22l0-207c0-12 10-22 22-22l207 0c11 0 21 10 21 22 0 12-10 19-21 19l-159 0 299 299c8 8 8 22 0 30-8 8-21 8-29 0z m639 631l-207 0c-12 0-22-10-22-22 0-12 10-19 22-19l158 0-299-299c-8-8-8-22 0-30 8-7 21-7 29 0l299 299 0-158c0-12 8-21 20-21 11 0 21 9 21 21l0 207c0 12-10 22-21 22z" horiz-adv-x="1000" />

<glyph glyph-name="fax" unicode="&#xe828;" d="M541 829l188 0 0-41-188 0z m0-82l293 0 0-43-293 0z m397-84l-22 0 0 146c0 6-2 12-8 16l-103 84c-4 2-8 4-14 4l-312 0c-12 0-20-10-20-22l0-228-43 0 0 21c0 57-47 104-103 104l-104 0 0 103c0 12-10 22-21 22-12 0-22-10-22-22l0-105c-47-10-82-53-82-102l0-21-21 0c-36 0-63-28-63-63l0-541c0-35 27-63 63-63l23 0c10-48 51-84 102-84l125 0c50 0 91 36 101 84l524 0c35 0 62 28 62 63l0 541c0 35-27 63-62 63z m-897-604l0 541c0 12 10 22 22 22l21 0 0-584-21 0c-12 0-22 9-22 21z m334-43c0-33-27-63-62-63l-125 0c-36 0-63 30-63 63l0 668c0 33 27 63 63 63l125 0c35 0 62-30 62-63z m125 856l285 0 90-73 0-136-375 0z m459-813c0-12-10-21-21-21l-522 0 0 584 522 0c11 0 21-10 21-22z m-146 520l-250 0c-12 0-22-8-22-20l0-84c0-12 10-21 22-21l250 0c11 0 21 9 21 21l0 84c0 12-10 20-21 20z m-22-82l-207 0 0 41 207 0z m-250-125l43 0 0-43-43 0z m125 0l43 0 0-43-43 0z m125 0l43 0 0-43-43 0z m-250-84l43 0 0-41-43 0z m125 0l43 0 0-41-43 0z m125 0l43 0 0-41-43 0z m-250-84l43 0 0-41-43 0z m125 0l43 0 0-41-43 0z m125 0l43 0 0-41-43 0z" horiz-adv-x="1000" />

<glyph glyph-name="file-excel" unicode="&#xe829;" d="M916 649c-2 4-4 6-6 8l-250 250c-2 2-4 4-6 4-4 2-6 2-7 2l-543 0c-12 0-20-10-20-22l0-957c0-12 8-22 20-22l793 0c11 0 19 10 19 22l0 707c0 4 0 6 0 8z m-250 193l180-179-180 0z m-541-889l0 919 500 0 0-231c0-12 10-19 22-19l228 0 0-669z m459 210l-84 0 0 187c0 12-10 22-21 22-12 0-20-10-20-22l0-209c0-12 8-19 20-19l105 0c12 0 20 7 20 19 0 12-8 22-20 22z m150 103c0 0-3 0-5 2-22 4-30 8-30 27 0 18 14 34 30 34 17 0 31-14 31-32 0-11 10-21 21-19 12 0 22 10 20 21-2 41-33 73-72 73-39 0-73-36-73-77 0-37 22-60 67-70 2 0 4 0 8 0 19-4 29-10 29-27 0-20-14-35-31-35-16 0-30 13-30 31-2 12-11 21-23 19-12 0-20-9-20-21 2-39 35-70 73-70 41 0 72 33 72 76 0 37-22 60-67 68z m-369 102c-9 5-23 4-29-8l-45-74-45 74c-6 12-17 13-27 8-10-6-14-18-8-28l57-93-57-94c-6-10-2-24 8-30 4-1 6-1 10-1 7 0 13 3 17 9l45 75 45-75c4-6 12-9 18-9 3 0 7 0 11 1 10 6 12 20 6 30l-55 94 55 93c8 10 4 22-6 28z" horiz-adv-x="1000" />

<glyph glyph-name="file-music" unicode="&#xe82a;" d="M832 649c-2 4-2 6-4 8l-250 250c-2 2-6 4-8 4-2 2-5 2-7 2l-459 0c-12 0-20-10-20-22l0-957c0-12 8-22 20-22l709 0c11 0 21 10 21 22l0 707c0 4-2 6-2 8z m-248 193l178-179-178 0z m-459-889l0 919 416 0 0-231c0-12 10-19 22-19l228 0 0-669z m424 575c-10-2-18-10-20-20l-21-246c-24 16-53 26-88 26-16 0-29-2-43-4-80-18-133-77-121-133 10-45 59-76 123-76 14 0 27 2 41 4 62 13 109 52 119 97 2 2 2 4 2 6l2 4c0 2 0 4 0 6l27 293c22 0 57-6 78-29 16-14 22-36 18-63 0-12 8-21 20-21 9-2 21 5 23 17 2 41-8 72-31 96-45 47-125 43-129 43z m-137-408c-55-12-109 7-115 41-8 33 33 70 88 82 12 2 23 4 35 4 41 0 74-18 80-43 2-4 2-8 0-10l0-6c-4-29-41-59-88-68z" horiz-adv-x="1000" />

<glyph glyph-name="file-new" unicode="&#xe82b;" d="M873 649c0 4-2 6-4 8l-250 250c-2 2-4 4-8 4-2 2-4 2-7 2l-457 0c-12 0-22-10-22-22l0-957c0-12 10-22 22-22l707 0c11 0 21 10 21 22l0 707c0 4 0 6-2 8z m-248 193l180-179-180 0z m-459-889l0 919 418 0 0-231c0-12 8-19 20-19l230 0 0-669z" horiz-adv-x="1000" />

<glyph glyph-name="file-pdf" unicode="&#xe82c;" d="M916 649c-2 4-4 6-6 8l-250 250c-2 2-4 4-6 4-4 2-6 2-7 2l-543 0c-12 0-20-10-20-22l0-957c0-12 8-22 20-22l793 0c11 0 19 10 19 22l0 707c0 4 0 6 0 8z m-250 193l180-179-180 0z m-541-889l0 919 500 0 0-231c0-12 10-19 22-19l228 0 0-669z m397 419l-43 0c-12 0-20-10-20-22l0-209c0-12 8-19 20-19l43 0c58 0 103 52 103 125 0 70-45 125-103 125z m0-209l-22 0 0 166 22 0c35 0 62-36 62-82 0-49-27-84-62-84z m269 209l-103 0c-12 0-22-10-22-22l0-209c0-12 10-19 22-19 11 0 21 7 21 19l0 106 41 0c12 0 22 7 22 19 0 12-10 22-22 22l-41 0 0 41 82 0c12 0 22 9 22 21 0 12-10 22-22 22z m-469 0l-50 0c-12 0-22-10-22-22l0-209c0-12 10-19 22-19 11 0 19 7 19 19l0 84 31 0c41 0 75 33 75 72 0 41-34 75-75 75z m0-106l-31 0 0 63 31 0c18 0 32-14 32-32 0-15-14-31-32-31z" horiz-adv-x="1000" />

<glyph glyph-name="file-picture" unicode="&#xe82d;" d="M832 649c-2 4-2 6-4 8l-250 250c-2 2-6 4-8 4-2 2-5 2-7 2l-541 0c-12 0-22-10-22-22l0-957c0-12 10-22 22-22l791 0c11 0 21 10 21 22l0 707c0 4-2 6-2 8z m-248 193l178-179-178 0z m-543-889l0 919 500 0 0-231c0-12 10-19 22-19l228 0 0-669z m522 506c-4 8-10 14-20 16-8 0-16-4-20-12l-111-203-64 63c-4 6-12 8-18 6-6 0-12-6-15-12l-104-207c-4-8-4-14 0-22 4-6 12-9 18-9l418 0c5 0 11 3 15 9 4 4 6 12 4 18z m-299-337l76 152 62-65c4-3 12-5 18-5 6 2 12 5 16 11l99 186 82-279z m27 332c47 0 84 37 84 84 0 46-37 84-84 84-45 0-82-38-82-84 0-47 37-84 82-84z m0 125c24 0 43-18 43-41 0-24-19-41-43-41-21 0-41 17-41 41 0 23 20 41 41 41z" horiz-adv-x="1000" />

<glyph glyph-name="file-text" unicode="&#xe82e;" d="M688 497l-416 0c-12 0-22-10-22-22l0-125c0-12 10-21 22-21 11 0 19 9 19 21l0 104 168 0 0-375-105 0c-12 0-20-8-20-20 0-12 8-21 20-21l250 0c11 0 21 9 21 21 0 12-10 20-21 20l-104 0 0 375 166 0 0-104c0-12 10-21 22-21 11 0 21 9 21 21l0 125c0 12-10 22-21 22z m228 152c-2 4-4 6-6 8l-250 250c-2 2-4 4-6 4-4 2-6 2-7 2l-543 0c-12 0-20-10-20-22l0-957c0-12 8-22 20-22l793 0c11 0 19 10 19 22l0 707c0 4 0 6 0 8z m-250 193l180-179-180 0z m-541-889l0 919 500 0 0-231c0-12 10-19 22-19l228 0 0-669z" horiz-adv-x="1000" />

<glyph glyph-name="file-video" unicode="&#xe82f;" d="M729 407c-12 8-30 9-47 2l-98-47 0 29c0 35-29 63-62 63l-209 0c-36 0-63-28-63-63l0-207c0-35 27-62 63-62l209 0c33 0 62 27 62 62l0 29 100-47c6-3 13-5 21-5 8 0 18 4 24 7 13 10 21 24 21 43l0 153c0 19-8 33-21 43z m-188-223c0-12-8-21-19-21l-209 0c-12 0-22 9-22 21l0 207c0 12 10 22 22 22l209 0c11 0 19-10 19-22z m168 27c0-5-2-7-2-7-2 0-4-2-8 0l-115 54 0 59 115 55c4 0 6 0 8 0 0 0 2-2 2-8z m207 438c-2 4-4 6-6 8l-250 250c-2 2-4 4-6 4-4 2-6 2-7 2l-543 0c-12 0-20-10-20-22l0-957c0-12 8-22 20-22l793 0c11 0 19 10 19 22l0 707c0 4 0 6 0 8z m-250 193l180-179-180 0z m-541-889l0 919 500 0 0-231c0-12 10-19 22-19l228 0 0-669z" horiz-adv-x="1000" />

<glyph glyph-name="file-word" unicode="&#xe830;" d="M916 649c-2 4-4 6-6 8l-250 250c-2 2-4 4-6 4-4 2-6 2-7 2l-543 0c-12 0-20-10-20-22l0-957c0-12 8-22 20-22l793 0c11 0 19 10 19 22l0 707c0 4 0 6 0 8z m-250 193l180-179-180 0z m-541-889l0 919 500 0 0-231c0-12 10-19 22-19l228 0 0-669z m580 376c12 0 26-2 33-36 2-9 14-17 26-15 9 2 17 13 15 25-11 57-47 69-74 69-80 0-80-86-80-125 0-41 0-125 80-125 27 0 63 11 74 68 2 10-6 21-15 23-12 2-24-4-26-15-7-33-21-35-33-35-21 0-39 5-39 84 0 76 18 82 39 82z m-205 43c-84 0-84-88-84-125 0-38 0-125 84-125 84 0 84 87 84 125 0 37 0 125-84 125z m0-209c-23 0-41 5-41 84 0 76 18 82 41 82 23 0 41-6 41-82 0-79-18-84-41-84z m-228 209l-43 0c-12 0-20-10-20-22l0-209c0-12 8-19 20-19l43 0c58 0 103 52 103 125 0 70-45 125-103 125z m0-209l-22 0 0 166 22 0c35 0 62-36 62-82 0-49-27-84-62-84z" horiz-adv-x="1000" />

<glyph glyph-name="file-zipped" unicode="&#xe831;" d="M869 741l-166 166c-4 4-10 6-15 6l-541 0c-12 0-22-10-22-22l0-957c0-12 10-22 22-22l707 0c11 0 21 10 21 22l0 791c0 6-2 12-6 16z m-35-788l-668 0 0 919 293 0 0-63c0-12 8-21 20-21l21 0 0-166-84 0 0 41 43 0 0 41-43 0 0 105c0 12-8 20-19 20-12 0-22-8-22-20l0-209c0-12 10-21 22-21l125 0c11 0 19 9 19 21l0 209c0 12-8 20-19 20l-22 0 0 43 180 0 154-155z m-334 563c0 12-10 22-21 22l-41 0c-12 0-22-10-22-22 0-12 10-19 22-19l41 0c11 0 21 7 21 19z m-84-82c0-12 10-21 22-21l41 0c11 0 21 9 21 21 0 12-10 20-21 20l-41 0c-12 0-22-8-22-20z m0-84c0-12 10-21 22-21l41 0c11 0 21 9 21 21 0 12-10 22-21 22l-41 0c-12 0-22-10-22-22z m0-84c0-12 10-19 22-19l41 0c11 0 21 7 21 19 0 12-10 22-21 22l-41 0c-12 0-22-10-22-22z m0-82c0-12 10-21 22-21l41 0c11 0 21 9 21 21 0 12-10 20-21 20l-41 0c-12 0-22-8-22-20z m0-84c0-12 10-21 22-21l41 0c11 0 21 9 21 21 0 12-10 22-21 22l-41 0c-12 0-22-10-22-22z m0-84c0-12 10-20 22-20l41 0c11 0 21 8 21 20 0 12-10 22-21 22l-41 0c-12 0-22-10-22-22z m125 459c0 12-8 22-19 22l-43 0c-12 0-20-10-20-22 0-12 8-21 20-21l43 0c11 0 19 9 19 21z m-82-84c0-12 8-19 20-19l43 0c11 0 19 7 19 19 0 12-8 22-19 22l-43 0c-12 0-20-10-20-22z m0-82c0-12 8-21 20-21l43 0c11 0 19 9 19 21 0 12-8 20-19 20l-43 0c-12 0-20-8-20-20z m0-84c0-12 8-21 20-21l43 0c11 0 19 9 19 21 0 12-8 22-19 22l-43 0c-12 0-20-10-20-22z m0-84c0-12 8-19 20-19l43 0c11 0 19 7 19 19 0 12-8 22-19 22l-43 0c-12 0-20-10-20-22z m0-82c0-12 8-21 20-21l43 0c11 0 19 9 19 21 0 12-8 20-19 20l-43 0c-12 0-20-8-20-20z" horiz-adv-x="1000" />

<glyph glyph-name="garage" unicode="&#xe832;" d="M994 469l-480 438c-8 8-20 8-28 0l-480-438c-8-8-8-21 0-29 8-8 21-10 29-2l465 426 465-426c4-2 10-4 14-4 5 0 11 2 15 6 8 8 8 21 0 29z m-164-191l-82 205c-2 8-10 14-19 14l-457 0c-10 0-18-6-20-14l-82-205-80-80c-4-4-6-8-6-14l0-168c0-12 8-20 20-20l21 0 0-62c0-12 10-22 22-22l125 0c11 0 19 10 19 22l0 62 418 0 0-62c0-12 8-22 20-22l125 0c11 0 21 10 21 22l0 62 22 0c11 0 19 8 19 20l0 168c0 6-2 10-6 14z m-545 176l430 0 66-166-562 0z m-35-501l-84 0 0 43 84 0z m584 0l-84 0 0 43 84 0z m20 85l-729 0 0 41 166 0c12 0 22 9 22 21 0 12-10 22-22 22l-166 0 0 52 70 73 610 0 70-73 0-52-166 0c-12 0-21-10-21-22 0-12 9-21 21-21l166 0 0-41z" horiz-adv-x="1000" />

<glyph glyph-name="globe" unicode="&#xe833;" d="M871 745c0 3-2 5-6 7-58 65-134 114-220 139 0 0 0 0-2 0-45 14-92 22-143 22-275 0-500-225-500-500 0-276 225-501 500-501 275 0 500 225 500 501 0 127-49 244-129 332z m-39-16c-8-25-29-96-86-127-72 14-144-27-160-45-10-12-6-23-4-27 4-6 10-10 18-12 6-8 19-39 25-68 2-4 4-8 6-10 19-22 49-18 68-12 2-21-29-56-60-90-24-23-35-35-35-50 0-18 13-28 23-38 2-2 8-5 8-5 0 0 0-2-4-4-27-28-55-37-55-37-8-4-13-12-13-20 0-55-34-84-102-84-14 10-43 68-45 84 0 4 4 14 10 22 6 11 12 25 12 41 0 23-26 52-41 70-2 25-10 45-24 58-23 22-58 20-92 18-9 0-21-2-31-2-41 0-41 61-41 63 0 2 0 128 86 146 61 12 78 2 80 0 0-6 2-12 6-16 37-37 94-23 139-11 17 2 33 6 43 6 9 0 19 7 21 17 8 57 12 127-16 147-11 5-23 7-35 2-15-8-29-10-39-4-12 6-13 17-15 27-2 27 82 64 160 82 74-25 140-66 193-121z m-332-776c-252 0-459 208-459 460 0 252 207 459 459 459 18 0 35-2 53-4-57-20-119-55-115-104 2-27 15-49 35-60 21-12 47-12 72 0 4-16 2-49 0-84-12-2-23-4-33-8-35-8-74-18-98 0-2 6-6 13-14 19-21 18-58 22-113 10-119-23-121-180-121-187 0-36 18-104 84-104 12 0 22 0 33 2 26 0 51 2 61-8 8-6 10-17 10-35 0-6 2-12 5-16 18-17 36-41 38-46 0-6-4-14-10-24-6-12-12-23-12-39 0-21 43-125 84-125 86 0 139 39 145 111 13 6 35 18 56 39 12 12 18 24 16 36 0 17-14 29-22 37-2 2-4 4-6 6 4 5 14 15 20 21 41 41 105 109 55 160-6 6-16 8-24 4-9-4-25-10-35-6-10 39-21 61-31 74 23 12 68 30 111 18 6-2 10 0 16 2 58 29 90 90 103 131 59-78 96-174 96-279 0-252-207-460-459-460z" horiz-adv-x="1000" />

<glyph glyph-name="hash" unicode="&#xe834;" d="M979 538l-289 0 60 349c2 12-6 24-18 26-9 2-21-6-23-18l-62-357-250 0 62 349c2 12-6 24-18 26-11 2-21-6-23-18l-62-357-250 0c-12 0-22-10-22-22 0-12 10-19 22-19l242 0-37-209-289 0c-12 0-22-10-22-22 0-12 10-19 22-19l283 0-55-311c-2-10 6-22 18-24 0 0 2 0 4 0 9 0 17 8 19 18l55 317 250 0-55-311c-2-10 6-22 18-24 2 0 2 0 4 0 9 0 19 8 19 18l57 317 256 0c11 0 21 7 21 19 0 12-10 22-21 22l-250 0 37 209 297 0c11 0 21 7 21 19 0 12-10 22-21 22z m-375-250l-250 0 37 209 248 0z" horiz-adv-x="1000" />

<glyph glyph-name="heart" unicode="&#xe835;" d="M742 913c-90 5-195-45-242-168-47 121-148 171-236 164-112-8-223-102-223-295 0-352 430-639 447-653 4-2 8-2 12-2 4 0 10 0 14 4 17 14 445 348 445 676 0 176-113 266-217 274z m-242-907c-72 49-416 311-416 608 0 166 92 246 184 254 4 0 7 0 11 0 86 0 178-63 200-207 2-10 11-18 21-18 10 0 20 8 22 18 23 154 126 216 216 209 90-6 178-80 178-231 0-277-348-576-416-633z" horiz-adv-x="1000" />

<glyph glyph-name="help-circle" unicode="&#xe836;" d="M479 872c-264 0-479-215-479-481 0-264 215-479 479-479 265 0 480 215 480 479 0 266-215 481-480 481z m0-919c-241 0-438 198-438 438 0 242 197 438 438 438 242 0 437-196 437-438 0-240-195-438-437-438z m0 688c-81 0-145-64-145-144 0-12 8-22 20-22 11 0 21 10 21 22 0 56 47 103 104 103 58 0 105-47 105-103 0-59-47-106-105-106-12 0-20-8-20-19l0-125c0-12 8-22 20-22 11 0 21 10 21 22l0 105c70 10 125 70 125 145 0 80-64 144-146 144z m43-500c0-21-20-41-43-41-22 0-41 20-41 41 0 24 19 43 41 43 23 0 43-19 43-43z" horiz-adv-x="1000" />

<glyph glyph-name="home" unicode="&#xe837;" d="M854 350c-12 0-20-10-20-21l0-376-209 0 0 272c0 12-10 22-21 22l-207 0c-12 0-22-10-22-22l0-272-209 0 0 397c0 12-8 22-19 22-12 0-22-10-22-22l0-416c0-12 10-22 22-22l250 0c11 0 19 10 19 22l0 270 168 0 0-270c0-12 8-22 20-22l250 0c11 0 21 10 21 22l0 395c0 11-10 21-21 21z m140 35l-478 481c-10 7-22 7-32 0l-478-481c-8-8-8-21 0-29 8-8 21-8 29 0l465 465 465-465c4-4 10-6 14-6 5 0 11 2 15 6 8 8 8 21 0 29z m-328 403l125 0 0-125c0-12 10-22 22-22 11 0 21 10 21 22l0 146c0 12-10 20-21 20l-147 0c-12 0-19-8-19-20 0-12 7-21 19-21z" horiz-adv-x="1000" />

<glyph glyph-name="hot-topic" unicode="&#xe838;" d="M375 911c-8 4-19 2-23-6-6-8-6-18 0-26 103-136 109-351 15-476-21 29-35 60-41 97-2 6-8 12-13 16-6 2-14 0-20-4-119-84-166-228-121-367 45-141 172-233 320-233 166 0 280 96 313 264 47 254-114 612-430 735z m389-727c-28-146-127-231-272-231-131 0-240 81-281 206-29 89-20 213 82 300 12-37 31-70 59-103 4-4 9-8 15-8 6 0 12 4 16 8 107 117 119 330 39 488 256-137 383-439 342-660z m-250 145c-8 0-16-4-18-10-4-6-4-14-2-22 20-33-6-72-15-84-24-33-63-54-86-48-6 1-14 0-20-6-4-4-6-12-6-18 12-60 63-103 123-103 69 0 123 54 125 125 2 44-8 107-41 140-17 18-37 26-60 26z m-24-250c-31 0-58 17-72 44 35 6 72 36 94 65 21 29 33 59 31 86 0 0 0 0 0 0 20-20 33-65 31-111-2-47-39-84-84-84z" horiz-adv-x="1000" />

<glyph glyph-name="size-house" unicode="&#xe839;" d="M854 247c-12 0-20-10-20-22l0-229-418 0 0 229c0 12-8 22-19 22-12 0-22-10-22-22l0-250c0-12 10-22 22-22l457 0c11 0 21 10 21 22l0 250c0 12-10 22-21 22z m140 13l-353 356c-10 7-22 7-32 0l-353-356c-8-8-8-21 0-29 8-8 21-8 29 0l340 340 340-340c4-4 10-6 14-6 5 0 11 2 15 6 8 8 8 21 0 29z m-56 131c11 0 21 10 21 22l0 146c0 12-10 20-21 20l-147 0c-12 0-19-8-19-20 0-12 7-21 19-21l125 0 0-125c0-12 10-22 22-22z m-250-144c11 0 21 7 21 19l0 125c0 12-10 22-21 22l-125 0c-12 0-22-10-22-22l0-125c0-12 10-19 22-19z m-104 125l82 0 0-84-82 0z m354 332c11 0 21 9 21 21l0 166c0 12-10 22-21 22l-916 0c-12 0-22-10-22-22l0-916c0-12 10-22 22-22l166 0c11 0 21 10 21 22l0 729z m-22 43l-82 0 0 62c0 12-10 20-21 20-12 0-22-8-22-20l0-62-125 0 0 62c0 12-8 20-19 20-12 0-22-8-22-20l0-62-125 0 0 62c0 12-10 20-21 20-12 0-20-8-20-20l0-62-125 0 0 62c0 12-10 20-21 20-12 0-22-8-22-20l0-62-82 0 0 125 707 0z m-875 125l125 0 0-125-125 0z m0-876l0 708 125 0 0-82-62 0c-12 0-20-10-20-22 0-12 8-21 20-21l62 0 0-125-62 0c-12 0-20-8-20-20 0-12 8-21 20-21l62 0 0-125-62 0c-12 0-20-10-20-22 0-12 8-19 20-19l62 0 0-125-62 0c-12 0-20-10-20-22 0-12 8-21 20-21l62 0 0-83z" horiz-adv-x="1000" />

<glyph glyph-name="info-circle" unicode="&#xe83a;" d="M479 872c-264 0-479-215-479-481 0-264 215-479 479-479 265 0 480 215 480 479 0 266-215 481-480 481z m0-919c-241 0-438 198-438 438 0 242 197 438 438 438 242 0 437-196 437-438 0-240-195-438-437-438z m125 169l-104 0 0 353c0 12-10 22-21 22l-82 0c-12 0-22-10-22-22 0-12 10-21 22-21l62 0 0-332-105 0c-12 0-20-10-20-22 0-12 8-21 20-21l250 0c11 0 21 9 21 21 0 12-10 22-21 22z m-104 519c0-21-19-41-41-41-23 0-43 20-43 41 0 24 20 43 43 43 22 0 41-19 41-43z" horiz-adv-x="1000" />

<glyph glyph-name="image" unicode="&#xe83b;" d="M147 38l-106 0 0 103c0 12-8 22-19 22-12 0-22-10-22-22l0-125c0-12 10-20 22-20l125 0c11 0 19 8 19 20 0 12-8 22-19 22z m-125 625c11 0 19 9 19 21l0 104 106 0c11 0 19 9 19 21 0 12-8 20-19 20l-125 0c-12 0-22-8-22-20l0-125c0-12 10-21 22-21z m957 166l-125 0c-12 0-20-8-20-20 0-12 8-21 20-21l105 0 0-104c0-12 8-21 20-21 11 0 21 9 21 21l0 125c0 12-10 20-21 20z m0-666c-12 0-20-10-20-22l0-103-105 0c-12 0-20-10-20-22 0-12 8-20 20-20l125 0c11 0 21 8 21 20l0 125c0 12-10 22-21 22z m-645 375c45 0 82 37 82 84 0 44-37 82-82 82-47 0-84-38-84-82 0-47 37-84 84-84z m0 125c22 0 41-20 41-41 0-24-19-43-41-43-23 0-43 19-43 43 0 21 20 41 43 41z m541-479c0 12-10 20-21 20l-47 0-121 320c-2 8-8 12-16 14-8 0-16-2-22-10l-150-227-86 104c-4 6-12 8-17 8-8 0-14-4-16-10l-119-199-113 0c-12 0-22-8-22-20 0-12 10-21 22-21l707 0c11 0 21 9 21 21z m-477 172l86-102c4-6 10-7 18-7 6 0 12 3 16 7l144 217 100-267-453 0z" horiz-adv-x="1000" />

<glyph glyph-name="location" unicode="&#xe83c;" d="M500 913c-184 0-334-151-334-334 0-176 303-637 316-657 4-6 10-10 18-10 8 0 14 4 18 10 13 20 316 481 316 657 0 183-150 334-334 334z m0-942c-64 104-291 467-291 608 0 162 131 293 291 293 160 0 291-131 291-293 0-141-226-504-291-608z m0 754c-80 0-146-64-146-146 0-81 66-145 146-145 80 0 147 64 147 145 0 82-67 146-147 146z m0-250c-57 0-103 47-103 104 0 58 46 105 103 105 57 0 104-47 104-105 0-57-47-104-104-104z" horiz-adv-x="1000" />

<glyph glyph-name="login" unicode="&#xe83e;" d="M938 413l-575 0 131 130c8 8 8 22 0 30-8 8-21 8-29 0l-168-166c-8-8-8-22 0-30l168-168c8-7 21-7 29 0 8 10 8 22 0 32l-131 131 575 0c11 0 21 7 21 19 0 12-10 22-21 22z m-32-190c-9 6-23 0-27-10-70-158-229-260-400-260-241 0-438 198-438 438 0 242 197 438 438 438 171 0 328-100 398-256 6-10 18-16 27-10 12 4 16 16 12 27-78 170-250 282-437 282-264 0-479-215-479-481 0-264 215-479 479-479 189 0 361 112 437 284 6 10 0 23-10 27z" horiz-adv-x="1000" />

<glyph glyph-name="facebook" unicode="&#xe83f;" d="M781 602l-177 0 0 78c0 37 25 47 43 47 17 0 125 0 125 0l0 164-182 0c-162 0-193-121-193-199l0-90-125 0 0-168 125 0c0-217 0-500 0-500l207 0c0 0 0 287 0 500l160 0z" horiz-adv-x="1000" />

<glyph glyph-name="google-plus" unicode="&#xe840;" d="M473 373c-30 22-57 53-57 63 0 18 0 27 41 57 51 41 78 93 78 150 0 49-15 94-41 125l20 0c4 0 9 2 11 4l57 43c8 4 12 14 8 21-2 8-10 14-20 14l-254 0c-27 0-54-6-84-14-91-33-156-111-156-193 0-113 88-201 207-203-2-10-4-20-4-27 0-18 6-36 14-51 0 0-2 0-2 0-113 0-217-57-256-139-10-21-13-43-13-64 0-22 3-41 15-61 24-43 76-76 147-96 37-8 76-13 117-13 37 0 72 5 103 13 102 30 166 104 166 190 0 82-25 133-97 181z m-321-187c0 59 77 111 163 111l1 0c20 0 40-2 55-7 6-4 12-8 18-12 41-28 66-45 74-74 2-8 2-14 2-22 0-74-55-111-164-111-84 0-149 51-149 115z m79 564c13 16 31 24 52 24l2 0c57-2 110-65 119-139 6-43-4-82-25-107-14-16-31-24-51-24l-2 0c-54 2-109 67-119 143-6 41 4 80 24 103z m748-234l-125 0 0 125-82 0 0-125-125 0 0-82 125 0 0-125 82 0 0 125 125 0z" horiz-adv-x="1000" />

<glyph glyph-name="linkedin" unicode="&#xe841;" d="M272 16l-207 0 0 543 207 0z m-104 625l-2 0c-62 0-103 51-103 104 0 56 43 101 105 101 64 0 104-47 105-101 0-55-41-104-105-104z m479-250c-45 0-82-37-82-82l0-293-209 0c0 0 1 500 0 543l209 0 0-62c0 0 64 60 164 60 123 0 211-90 211-264l0-277-209 0 0 293c0 45-38 82-84 82z" horiz-adv-x="1000" />

<glyph glyph-name="pinterest" unicode="&#xe842;" d="M506 891c-262 0-395-187-395-344 0-93 37-177 114-209 13-6 23 0 27 14 4 10 10 33 12 43 4 14 2 20-8 31-22 26-37 61-37 108 0 138 105 263 271 263 149 0 229-90 229-211 0-158-71-293-174-293-57 0-100 49-86 108 16 68 49 144 49 195 0 45-26 82-76 82-59 0-106-60-106-142 0-53 18-88 18-88 0 0-61-254-71-299-21-90-3-199-1-209 0-8 9-8 13-4 6 8 74 94 100 180 6 25 37 152 37 152 19-37 76-68 135-68 177 0 297 160 297 377 0 162-137 314-348 314z" horiz-adv-x="1000" />

<glyph glyph-name="twitter" unicode="&#xe843;" d="M977 711c-34-15-63-15-92 0 39 24 41 39 55 84-38-23-79-39-122-47-33 38-84 61-138 61-104 0-188-86-188-189 0-16 0-30 4-43-158 7-297 82-390 197-16-27-26-61-26-96 0-64 33-123 84-158-31 2-60 10-86 25 0-2 0-2 0-4 0-91 67-168 153-185-28-8-57-8-86-2 25-76 93-131 177-133-82-62-181-90-281-78 84-53 184-84 291-84 348 0 539 287 539 537 0 10 0 18-2 26 37 27 82 50 108 89z" horiz-adv-x="1000" />

<glyph glyph-name="logout" unicode="&#xe844;" d="M506 241c-8-10-8-22 0-32 8-7 21-7 29 0l168 168c8 8 8 22 0 30l-168 166c-8 8-21 8-29 0-8-8-8-22 0-30l131-130-574 0c-12 0-22-10-22-22 0-12 10-19 22-19l574 0z m16 631c-188 0-360-112-438-282-4-11 0-23 12-27 10-6 21 0 27 10 70 156 227 256 399 256 240 0 437-196 437-438 0-240-197-438-437-438-172 0-331 102-401 260-4 10-17 16-27 10-10-4-16-17-10-27 76-172 248-284 438-284 263 0 478 215 478 479 0 266-215 481-478 481z" horiz-adv-x="1000" />

<glyph glyph-name="size" unicode="&#xe845;" d="M979 913l-957 0c-12 0-22-10-22-22l0-957c0-12 10-22 22-22l728 0c6 0 12 2 16 6l228 229c4 4 6 10 6 16l0 728c0 12-10 22-21 22z m-20-209l-84 0 0 105c0 12-10 20-21 20-12 0-20-8-20-20l0-105-125 0 0 62c0 12-10 22-21 22-12 0-22-10-22-22l0-62-125 0 0 62c0 12-8 22-19 22-12 0-22-10-22-22l0-62-125 0 0 105c0 12-10 20-21 20-12 0-20-8-20-20l0-105-84 0 0 168 709 0z m-918 168l168 0 0-168-168 0z m0-209l168 0 0-84-105 0c-12 0-20-8-20-20 0-12 8-21 20-21l105 0 0-125-62 0c-12 0-22-10-22-22 0-12 10-19 22-19l62 0 0-125-62 0c-12 0-22-10-22-22 0-12 10-21 22-21l62 0 0-125-105 0c-12 0-20-8-20-20 0-12 8-21 20-21l105 0 0-85-168 0z m209 0l709 0 0-459-230 0c-12 0-20-8-20-20l0-231-459 0z m500-700l0 200 199 0z" horiz-adv-x="1000" />

<glyph glyph-name="mobile-phone-portrait" unicode="&#xe846;" d="M688 913l-375 0c-57 0-104-47-104-104l0-793c0-57 47-104 104-104l375 0c56 0 103 47 103 104l0 793c0 57-47 104-103 104z m-438-209l500 0 0-582-500 0z m63 168l375 0c35 0 62-30 62-63l0-62-500 0 0 62c0 33 27 63 63 63z m375-919l-375 0c-36 0-63 30-63 63l0 63 500 0 0-63c0-33-27-63-62-63z m-291 835l207 0c11 0 21 9 21 21 0 12-10 20-21 20l-207 0c-12 0-22-8-22-20 0-12 10-21 22-21z m103-729c-23 0-41-19-41-43 0-22 18-41 41-41 23 0 41 19 41 41 0 24-18 43-41 43z m0-63l0 20 0 0z" horiz-adv-x="1000" />

<glyph glyph-name="pen" unicode="&#xe847;" d="M941 737l-117 117c-8 8-21 8-29 0l-18-16c-39 26-95 22-130-13l-235-235c-8-9-8-21 0-31 4-4 10-6 14-6 6 0 12 2 15 6l237 236c17 20 47 22 70 12l-601-601c-8-8-8-22 0-30l117-117c8-8 21-8 29 0l648 648c4 4 6 10 6 14 0 6-2 12-6 16z m-662-633l-88 88 383 383 43-45 45-43z m412 412l-44 43-43 45 205 207 89-90z m-544-398c-8 7-22 7-30 0-8-8-8-22 0-30l14-13-72-75c-8-7-8-21 0-29 7-8 21-8 29 0l74 72 14-13c8-8 21-8 29 0 8 8 8 21 0 29z" horiz-adv-x="1000" />

<glyph glyph-name="homephone" unicode="&#xe848;" d="M879 791c-252 51-506 51-758 0-68-13-121-76-121-142l0-90c0-61 49-113 104-113l125 0c56 0 105 52 105 113l0 51c109 10 223 10 332 0l0-51c0-61 49-113 106-113l125 0c54 0 103 52 103 113l0 90c0 66-53 129-121 142z m80-232c0-37-31-70-62-70l-125 0c-34 0-63 33-63 70l0 70c0 10-8 20-19 20-63 6-127 10-190 10-62 0-127-4-189-10-12 0-20-10-20-20l0-70c0-37-29-70-62-70l-125 0c-32 0-63 33-63 70l0 90c0 47 39 92 88 101 246 49 496 49 742 0 49-9 88-54 88-101l0-90z m-209-459c0-35-27-62-62-62l-416 0c-36 0-63 27-63 62l0 313-43 0 0-313c0-57 47-104 106-104l416 0c56 0 103 47 103 104l0 313-41 0z m-416 272l41 0 0-43-41 0z m125 0l41 0 0-43-41 0z m125 0l41 0 0-43-41 0z m-250-84l41 0 0-41-41 0z m125 0l41 0 0-41-41 0z m125 0l41 0 0-41-41 0z m-250-84l41 0 0-41-41 0z m125 0l41 0 0-41-41 0z m125 0l41 0 0-41-41 0z" horiz-adv-x="1000" />

<glyph glyph-name="phone" unicode="&#xe849;" d="M924 182l-102 104c-23 21-52 33-84 33 0 0 0 0 0 0-31 0-60-12-82-33l-21-22c-102 84-199 182-283 283l21 22c45 45 45 119 0 166l-103 101c-43 45-122 45-166 0l-55-56c-57-55-65-143-22-207 164-250 383-469 633-633 28-18 59-28 90-28 43 0 86 18 117 49l57 55c21 24 35 53 35 84 0 31-14 61-35 82z m-29-135l-57-56c-41-41-106-49-154-16-246 162-459 375-621 621-34 49-26 113 15 154l57 57c13 16 33 22 53 22 19 0 39-6 52-22l104-101c29-30 29-79 0-108l-35-33c-8-8-8-22-2-29 93-114 203-223 316-317 8-6 22-6 29 2l34 35c13 14 33 22 52 22l0 0c22 0 39-8 55-22l102-103c13-14 21-33 21-53 0-19-8-39-21-53z" horiz-adv-x="1000" />

<glyph glyph-name="print" unicode="&#xe84a;" d="M897 622l-793 0c-57 0-104-47-104-106l0-250c0-57 47-103 104-103l105 0 0-188c0-12 8-22 20-22l543 0c11 0 19 10 19 22l0 188 106 0c56 0 103 46 103 103l0 250c0 59-47 106-103 106z m-147-626l-500 0 0 292 500 0z m209 270c0-33-29-62-62-62l-106 0 0 105c0 12-8 20-19 20l-543 0c-12 0-20-8-20-20l0-105-105 0c-34 0-63 29-63 62l0 250c0 35 29 63 63 63l793 0c33 0 62-28 62-63z m-730 397c11 0 21 9 21 21l0 145 375 0 0-104c0-12 10-21 22-21l103 0 0-20c0-12 10-21 22-21 11 0 19 9 19 21l0 41c0 2 0 6 0 8-2 2-4 6-6 8l-125 125c-2 2-4 2-6 4-4 0-6 2-7 2l-418 0c-12 0-20-10-20-22l0-166c0-12 8-21 20-21z m437 136l55-52-55 0z m-519-261c-36 0-63-28-63-63 0-35 27-62 63-62 33 0 62 27 62 62 0 35-29 63-62 63z m0-84c-12 0-22 9-22 21 0 12 10 22 22 22 11 0 19-10 19-22 0-12-8-21-19-21z m541-207l-375 0c-12 0-22-10-22-22 0-12 10-21 22-21l375 0c11 0 21 9 21 21 0 12-10 22-21 22z m0-84l-375 0c-12 0-22-10-22-22 0-12 10-19 22-19l375 0c11 0 21 7 21 19 0 12-10 22-21 22z m0-84l-375 0c-12 0-22-8-22-20 0-12 10-21 22-21l375 0c11 0 21 9 21 21 0 12-10 20-21 20z" horiz-adv-x="1000" />

<glyph glyph-name="star-small" unicode="&#xe84b;" d="M811 510c-2 8-8 14-16 16l-203 29-92 184c-8 13-31 13-37 0l-92-184-203-29c-8-2-16-8-18-16-2-6 0-15 6-19l147-145-35-201c0-8 2-16 9-20 4-3 8-3 12-3 4 0 6 0 10 1l182 96 183-96c6-3 16-3 22 2 5 4 9 12 7 20l-35 201 149 145c6 4 8 13 4 19z m-190-140c-4-6-6-12-6-20l30-170-155 80c-2 2-6 2-9 2-2 0-6 0-10-2l-155-80 30 170c2 8 0 14-6 20l-125 121 174 23c6 2 11 6 15 12l77 156 78-156c2-6 7-10 15-12l172-23z" horiz-adv-x="1000" />

<glyph glyph-name="rank-army-star-2-1" unicode="&#xe84c;" d="M998 565c-2 10-10 14-19 14l-340 0-119 320c-6 16-34 16-39 0l-120-320-339 0c-10 0-18-4-20-14-4-8-2-18 6-22l281-242-121-361c-4-8 0-18 8-24 6-6 17-6 23 0l301 221 301-221c4-2 8-4 12-4 3 0 7 2 11 4 8 6 12 16 8 24l-121 361 281 242c8 4 10 14 6 22z m-324-240c-6-6-8-16-6-24l104-312-260 191c-4 2-8 4-12 4-4 0-8-2-12-4l-259-191 103 312c4 8 0 18-6 24l-248 213 297 0c8 0 16 5 20 13l105 281 106-281c3-8 11-13 19-13l297 0z" horiz-adv-x="1000" />

<glyph glyph-name="remove" unicode="&#xe84d;" d="M994 907c-8 8-21 8-29 0l-465-465-465 465c-8 8-21 8-29 0-8-8-8-22 0-30l465-464-465-465c-8-8-8-22 0-30 8-8 21-8 29 0l465 465 465-465c8-8 21-8 29 0 8 8 8 22 0 30l-465 465 465 464c8 8 8 22 0 30z" horiz-adv-x="1000" />

<glyph glyph-name="remove-box" unicode="&#xe84e;" d="M670 625c-8 8-22 8-29 0l-162-162-163 162c-7 8-21 8-29 0-8-7-8-21 0-29l162-162-162-162c-8-8-8-22 0-29 8-10 22-10 29 0l163 162 162-162c7-10 21-10 29 0 10 7 10 21 0 29l-162 162 162 162c10 8 10 22 0 29z m-648-672l916 0c11 0 21 10 21 22l0 916c0 12-10 22-21 22l-916 0c-12 0-22-10-22-22l0-916c0-12 10-22 22-22z m19 919l875 0 0-876-875 0z" horiz-adv-x="1000" />

<glyph glyph-name="remove-circle" unicode="&#xe84f;" d="M479-47c265 0 480 215 480 481 0 264-215 479-480 479-264 0-479-215-479-479 0-266 215-481 479-481z m0 919c242 0 437-198 437-438 0-242-195-438-437-438-241 0-438 196-438 438 0 240 197 438 438 438z m-192-629c8-10 22-10 29 0l163 162 162-162c7-10 21-10 29 0 10 7 10 21 0 29l-162 162 162 162c10 8 10 22 0 29-8 8-22 8-29 0l-162-162-163 162c-7 8-21 8-29 0-8-7-8-21 0-29l162-162-162-162c-8-8-8-22 0-29z" horiz-adv-x="1000" />

<glyph glyph-name="share" unicode="&#xe850;" d="M813 288c-67 0-123-34-157-86l-293 146c16 41 16 88 0 129l293 146c34-52 90-85 157-85 103 0 187 84 187 187 0 104-84 188-187 188-129 0-221-129-176-252l-291-147c-35 53-94 86-158 86-104 0-188-84-188-187 0-104 84-188 188-188 64 0 123 33 158 86l291-146c-45-124 47-253 176-253 103 0 187 84 187 188 0 104-84 188-187 188z" horiz-adv-x="1000" />

<glyph glyph-name="shower" unicode="&#xe851;" d="M625 913c-139 0-250-112-250-250l0-2c-94-10-166-90-166-186l0-41c0-12 8-21 20-21l334 0c11 0 21 9 21 21l0 41c0 96-74 176-168 186l0 2c0 115 94 209 209 209 115 0 209-94 209-209l0-751 41 0 0 751c0 138-111 250-250 250z m-84-438l0-21-291 0 0 21c0 80 65 147 147 147 80 0 144-67 144-147z m-144-166c-12 0-22-10-22-21l0-84c0-12 10-20 22-20 11 0 19 8 19 20l0 84c0 11-8 21-19 21z m0-250c-12 0-22-10-22-21l0-85c0-11 10-19 22-19 11 0 19 8 19 19l0 85c0 11-8 21-19 21z m173 147l-13 84c-2 9-12 17-24 15-11 0-19-12-17-23l13-82c2-10 10-18 20-18 2 0 2 0 4 0 12 2 19 14 17 24z m2-147c-11-2-19-12-17-23l13-83c2-11 10-17 20-17 2 0 4 0 4 0 12 2 19 12 17 23l-13 82c-2 12-12 20-24 18z m-316 246c-12 2-24-6-24-15l-13-84c-2-10 6-22 17-24 0 0 2 0 2 0 10 0 20 8 22 18l13 82c2 11-5 23-17 23z m-39-246c-12 2-24-6-26-18l-11-82c-2-11 6-21 15-23 2 0 4 0 4 0 10 0 20 6 22 17l11 83c2 11-5 21-15 23z" horiz-adv-x="1000" />

<glyph glyph-name="shrink" unicode="&#xe852;" d="M354 288l-207 0c-12 0-22-10-22-22 0-12 10-19 22-19l158 0-299-299c-8-8-8-22 0-30 8-8 21-8 29 0l299 299 0-158c0-12 8-21 20-21 11 0 21 9 21 21l0 207c0 12-10 22-21 22z m640 619c-8 8-21 8-29 0l-299-299 0 158c0 12-8 22-19 22-12 0-22-10-22-22l0-207c0-12 10-21 22-21l207 0c11 0 21 9 21 21 0 12-10 20-21 20l-159 0 299 298c8 8 8 22 0 30z" horiz-adv-x="1000" />

<glyph glyph-name="synchronize" unicode="&#xe853;" d="M568 829c-207-8-396-168-402-409l-86 129c-6 10-19 12-29 6-10-6-12-19-6-29l125-188c8-11 23-11 33-2l147 166c7 10 6 24-2 30-10 8-22 8-30-2l-111-127c-2 224 170 377 363 385 207 9 381-155 389-362 6-207-154-381-361-388-151-6-291 80-356 216-4 12-15 16-27 12-10-6-14-18-10-29 68-147 219-246 393-241 230 8 410 202 402 432-8 231-205 408-432 401z" horiz-adv-x="1000" />

<glyph glyph-name="video" unicode="&#xe854;" d="M604 704l-541 0c-36 0-63-28-63-63l0-457c0-35 27-62 63-62l541 0c35 0 62 27 62 62l0 457c0 35-27 63-62 63z m21-520c0-12-10-21-21-21l-541 0c-12 0-22 9-22 21l0 457c0 12 10 22 22 22l541 0c11 0 21-10 21-22z m365 475c-6 4-13 6-19 2l-250-125c-8-4-12-12-12-20l0-207c0-8 4-16 12-19l250-125c2-2 6-2 8-2 3 0 7 2 11 3 6 4 10 10 10 18l0 457c0 8-4 14-10 18z m-31-442l-209 104 0 183 209 104z" horiz-adv-x="1000" />

<glyph glyph-name="view" unicode="&#xe855;" d="M996 426c-10 10-224 278-496 278-271 0-486-268-496-278-6-8-6-19 0-27 10-10 225-277 496-277 272 0 486 267 496 277 6 8 6 19 0 27z m-496-263c-219 0-406 197-451 250 45 52 232 250 451 250 219 0 406-198 451-250-45-53-232-250-451-250z m0 437c-103 0-187-84-187-187 0-104 84-188 187-188 104 0 188 84 188 188 0 103-84 187-188 187z m0-334c-80 0-146 66-146 147 0 80 66 146 146 146 80 0 147-66 147-146 0-81-67-147-147-147z m0 250c-12 0-21-8-21-19 0-12 9-22 21-22 35 0 63-27 63-62 0-36-28-63-63-63-35 0-62 27-62 63 0 11-10 21-22 21-12 0-19-10-19-21 0-57 46-104 103-104 57 0 104 47 104 104 0 56-47 103-104 103z" horiz-adv-x="1000" />

<glyph glyph-name="rows" unicode="&#xe856;" d="M979 872l-957 0c-12 0-22-10-22-22l0-209c0-12 10-19 22-19l957 0c11 0 21 7 21 19l0 209c0 12-10 22-21 22z m-20-209l-918 0 0 166 918 0z m20-125l-957 0c-12 0-22-10-22-22l0-207c0-12 10-21 22-21l957 0c11 0 21 9 21 21l0 207c0 12-10 22-21 22z m-20-209l-918 0 0 168 918 0z m20-125l-957 0c-12 0-22-8-22-20l0-209c0-12 10-22 22-22l957 0c11 0 21 10 21 22l0 209c0 12-10 20-21 20z m-20-208l-918 0 0 167 918 0z" horiz-adv-x="1000" />

<glyph glyph-name="grid" unicode="&#xe857;" d="M604 913l-250 0c-12 0-20-10-20-22l0-250c0-12 8-19 20-19l250 0c11 0 21 7 21 19l0 250c0 12-10 22-21 22z m-20-250l-209 0 0 209 209 0z m-312 250l-250 0c-12 0-22-10-22-22l0-250c0-12 10-19 22-19l250 0c11 0 19 7 19 19l0 250c0 12-8 22-19 22z m-22-250l-209 0 0 209 209 0z m688 250l-250 0c-12 0-22-10-22-22l0-250c0-12 10-19 22-19l250 0c11 0 21 7 21 19l0 250c0 12-10 22-21 22z m-22-250l-207 0 0 209 207 0z m-312-84l-250 0c-12 0-20-8-20-20l0-250c0-12 8-21 20-21l250 0c11 0 21 9 21 21l0 250c0 12-10 20-21 20z m-20-250l-209 0 0 209 209 0z m-312 250l-250 0c-12 0-22-8-22-20l0-250c0-12 10-21 22-21l250 0c11 0 19 9 19 21l0 250c0 12-8 20-19 20z m-22-250l-209 0 0 209 209 0z m688 250l-250 0c-12 0-22-8-22-20l0-250c0-12 10-21 22-21l250 0c11 0 21 9 21 21l0 250c0 12-10 20-21 20z m-22-250l-207 0 0 209 207 0z m-312-82l-250 0c-12 0-20-10-20-22l0-250c0-12 8-22 20-22l250 0c11 0 21 10 21 22l0 250c0 12-10 22-21 22z m-20-251l-209 0 0 208 209 0z m-312 251l-250 0c-12 0-22-10-22-22l0-250c0-12 10-22 22-22l250 0c11 0 19 10 19 22l0 250c0 12-8 22-19 22z m-22-251l-209 0 0 208 209 0z m688 251l-250 0c-12 0-22-10-22-22l0-250c0-12 10-22 22-22l250 0c11 0 21 10 21 22l0 250c0 12-10 22-21 22z m-22-251l-207 0 0 208 207 0z" horiz-adv-x="1000" />

<glyph glyph-name="clock" unicode="&#xe858;" d="M500-88c-275 0-500 225-500 501 0 275 225 500 500 500 275 0 500-225 500-500 0-276-225-501-500-501z m0 960c-252 0-459-207-459-459 0-252 207-460 459-460 252 0 459 208 459 460 0 252-207 459-459 459z m215-704l-250 229c-4 4-6 10-6 16l0 228c0 12 8 22 20 22 11 0 21-10 21-22l0-219 244-222c8-8 8-22 0-32-8-7-21-7-29 0z" horiz-adv-x="1000" />

<glyph glyph-name="subtract" unicode="&#xe859;" d="M979 454l-957 0c-12 0-22-8-22-20 0-12 10-21 22-21l957 0c11 0 21 9 21 21 0 12-10 20-21 20z" horiz-adv-x="1000" />

<glyph glyph-name="delivery" unicode="&#xe864;" d="M509-54c-86 30-166 74-251 107-51 13-90-30-132-51-56 2-4 54 25 63 43 34 104 41 152 14 70-31 140-63 211-93 45-8 76 37 114 54 108 69 218 137 325 207 16 33-33 73-59 35-46-30-56 69-97 29-32-38-72-14-94 18-29-11-66-40-84-55 50 6 102-37 95-89-1-51-55-85-103-76-52 1-106-4-158 3-38 18-79 33-112 59-6 40 45 24 64 8 31-15 61-35 97-30 48 1 96-3 144 2 52 17 23 97-28 81-53 2-107 1-160 5-55 29-107 64-164 91-50 20-105 4-150-21-41-19-81-41-124-57-49 18 6 52 32 58 53 23 104 57 161 66 48 5 97-3 138-29 43-23 82-52 127-70 37-4 74-4 102 24 37 23 70 56 113 70 44 14 58-60 93-17 35 28 77-4 94-30 34 31 91 20 105-25 12-17 16-39 10-58-17-36-58-47-87-70-113-71-225-144-339-214-18-11-40-11-60-9z m130 521c-54 9-101 47-126 95-26-6-49 15-70 0-24-3-46 7-67 0-21 1-47-6-61 17-16 16-41-40-67-11-21-12-48-3-71-5-46 17-32 79-27 116 30 48 88 29 135 33 76 0 153 1 229 1 37 85 148 122 230 80 61-28 104-96 97-164 1-92-88-173-179-162-8 0-16-1-23 0z m47 39c80 8 138 99 109 175-24 77-125 115-193 70-33-15-46-51-67-77-110-2-220 0-330-1-12-10-25-20-19-37 2-15-8-41 16-34 16-3 28 2 38 15 24-11 36-12 53 13 29 22 42-27 66-28 17-5 21 21 39 13 12-3 23-21 38-11 8 14 25 21 38 11 12-20 34-11 53-13 33-15 40-70 82-82 24-12 51-17 77-14z m41 86c-44 12-41 86 5 93 42 14 79-42 52-76-13-18-36-24-57-17z m22 39c15 37-40-3 0 0z" horiz-adv-x="1000" />

<glyph glyph-name="houses" unicode="&#xe865;" d="M388-141c-3 1-7 3-9 5-7 8-7-1-7 140 0 141 0 133 7 140 10 10 25 8 31-5l3-4 0-117 0-117h418l0 117 1 117 2 4c6 13 21 15 31 5 8-7 7 1 7-140 0-141 1-132-7-140-7-7 13-6-243-6-199 0-230 0-234 1z m-125 272c-6 1-10 4-13 9-3 6-3 13 0 19 2 3 63 65 180 182 141 142 178 179 182 181 7 4 13 4 21 0 4-2 40-39 182-181 97-98 177-179 178-180 5-6 4-16 0-23-5-7-17-10-25-6-2 1-80 78-175 172l-171 171-171-171c-136-136-173-172-175-173-7-2-9-2-13 0z m291 21c-6 2-11 5-13 10-2 4-2 7-3 69 0 73 0 72 7 79 7 7 6 7 77 7 71 0 70 0 77-7 7-7 7-6 7-79 0-62 0-65-2-69-3-5-8-9-15-10-7-2-129-2-135 0z m109 82v42h-82v-84h82v42z m-510-56c-3 0-6 3-8 5-7 7-7-1-7 140 0 140 0 132 7 139 10 10 25 8 31-4l2-5 1-117 0-117h99l-21-21-22-22-38 0c-32 0-40 0-44 2z m776 119c-7 2-12 7-14 14-2 4-2 14-2 68v63l-55 0c-36 0-56 0-59 1-9 2-14 10-14 20 0 8 3 13 9 17l4 2h142l5-2c5-3 9-7 10-12 1-3 1-28 1-78 0-83 0-81-7-88-2-2-5-4-9-5-6-2-5-2-11 0z m-900 152c-7 2-11 5-13 10-3 6-3 13 0 18 2 3 63 65 179 183 142 142 178 178 183 180 7 4 13 4 20 0 4-2 41-38 182-180 98-98 178-179 179-181 4-6 4-16-1-23-4-7-17-10-25-6-1 1-79 78-174 173l-171 171-172-172c-135-135-172-172-175-172-6-2-8-2-12-1z m290 21c-5 2-10 6-13 10-1 4-2 8-2 69 0 73 0 72 7 79 7 7 6 7 77 7s70 0 77-7c7-7 7-6 7-79-1-62-1-65-3-69-2-5-8-9-14-10-7-2-130-1-136 0z m110 82v42h-82v-84h82v42z m250 63c-7 2-12 8-14 14-2 5-2 14-2 68v63l-55 0c-36 0-56 0-59 1-9 3-14 10-14 21 0 7 3 13 9 16l4 3h142l5-3c5-2 9-7 10-12 1-3 1-27 1-78 0-64 0-74-1-79-2-7-8-12-15-14-6-2-5-2-11 0z" horiz-adv-x="1000" />

<glyph glyph-name="shovel" unicode="&#xe866;" d="M154-147c-78 14-143 80-152 159-4 47 3 96 33 134 59 70 128 131 192 196 38 13 59-39 87-59 12-8 25-39 37-17l443 443c-17 47-10 107 29 141 18 3 32-3 43-18 45-44 89-89 134-134 7-26-14-43-37-52-45-29-105 20-134-32-142-140-282-282-423-422 29-33 64-60 89-95-10-46-66-73-94-111-55-51-103-121-182-133-22-1-44-1-65 0z m57 40c72 13 113 78 164 124 24 24 49 49 73 73-23 26-48 50-73 74-42-31-80-67-123-97-68-8-20 67 7 90 20 33 82 69 25 98-14 15-29 29-43 44-59-61-123-116-176-181-51-72-17-184 65-215 25-12 54-14 81-10z m125 291c29 28-22-11 0 0z m144 139c115 114 229 229 344 344-12 17-24-16-37-22-139-139-278-278-417-418 12-15 25 17 37 23 24 24 48 49 73 73z m444 353c64 13-35 61-49 89-20 28-51 51-50 0-5-53 47-99 99-89z" horiz-adv-x="1000" />
</font>
</defs>
</svg>
