<svg xmlns="http://www.w3.org/2000/svg" viewBox="0 0 484.027 484.027">
  <path d="M399.685 183.158c35.355 0 63.785-28.517 63.785-63.7 0-35.203-28.452-63.762-63.785-63.762-35.14 0-63.612 28.538-63.612 63.763 0 35.16 28.473 63.696 63.612 63.696zm51.145 10.375H348.67c-15.164 0-27.934 11.713-31.86 27.46l-60.657 124.183c-.863-.065-1.596-.496-2.48-.496H230.29c-.863 0-1.618.453-2.438.496l-60.657-124.16c-3.904-15.748-16.653-27.482-31.838-27.482H33.133C14.863 193.534 0 210.294 0 230.85v197.48h168.51v-112.1l36.8 68.034c3.56 11.82 13.29 20.384 25.002 20.384h23.383c11.713 0 21.463-8.564 25.044-20.384l36.775-68.034v112.1h168.51V230.85c-.022-20.556-14.906-37.317-33.198-37.317zM84.3 183.158c35.138 0 63.61-28.517 63.61-63.7.023-35.224-28.45-63.762-63.61-63.762-35.312 0-63.786 28.538-63.786 63.763 0 35.16 28.473 63.696 63.785 63.696z"/>
</svg>
