<svg xmlns="http://www.w3.org/2000/svg" viewBox="0 0 23.303 18.93">
  <path d="M21.624 2.3c-.93 0-1.685.82-1.685 1.83 0 .658.315 1.23.794 1.555-1.012 1.52-2.44 3.283-3.912 3.794-1.937.67-3.743-3.466-4.632-5.924.66-.248 1.14-.925 1.14-1.728C13.33.82 12.578 0 11.65 0c-.926 0-1.68.82-1.68 1.83 0 .803.48 1.48 1.14 1.728-.888 2.458-2.692 6.594-4.632 5.92-1.47-.51-2.9-2.274-3.91-3.793.476-.325.795-.896.795-1.554 0-1.01-.755-1.83-1.683-1.83C.754 2.3 0 3.12 0 4.13c0 1.014.754 1.834 1.68 1.834.02 0 .032-.005.05-.007L4 16.502h15.303l2.27-10.545c.017 0 .033.007.052.007.925 0 1.68-.82 1.68-1.833-.002-1.01-.756-1.83-1.68-1.83zM4.077 16.873h15.148v2.057H4.077z"/>
</svg>
