<svg xmlns="http://www.w3.org/2000/svg" viewBox="0 0 474.557 474.557">
  <path d="M430.8 35.247V0H12.976v439.332H14.7c3.904 16.092 15.66 35.225 42.257 35.225h404.625V35.247h-30.78zm-26.4-8.867v81.733H39.313V26.38h365.085zM39.313 127.204h365.085v285.813H39.313V127.203zM435.266 448.22H56.958c-8.132 0-12.468-4.315-14.82-8.888H430.8V61.562h4.467V448.22z"/>
  <path d="M237.85 150.693h132.768v26.36H237.85zm0 53.56h132.768v26.425H237.85zm0 53.583h132.768v26.467H237.85zm0 50.69h132.768v26.49H237.85zm0 53.584h132.768v26.423H237.85zM63.84 150.693h135.744v133.61H63.84zm83.672-107.12H304.59v46.96H147.512zM62.372 311.44H202.13v26.466H62.37zm0 53.516H202.13v26.446H62.37z"/>
</svg>
