<svg xmlns="http://www.w3.org/2000/svg" viewBox="0 0 502.672 502.672">
  <g fill="#010002">
    <path d="M138.29 168.02h258.806v-16.18c0-13.35-10.936-24.266-24.267-24.266H266.01v-14.13c0-20.103-16.35-36.39-36.39-36.39h-62.123c-9.707 0-18.83 3.797-25.734 10.7-6.903 6.903-10.678 15.962-10.678 25.69v14.15H24.267C10.915 127.574 0 138.49 0 151.842v216.723L81.58 203.29c9.902-20.127 34.32-35.27 56.71-35.27zm17.063-54.575c0-3.214 1.316-6.256 3.58-8.542 2.266-2.33 5.33-3.602 8.543-3.602H229.6c6.71 0 12.123 5.44 12.123 12.148v14.15h-86.37v-14.15z"/>
    <path d="M486.874 192.243H138.29c-13.33 0-29.1 9.793-34.945 21.743L9.6 403.896c-5.91 11.928.193 21.72 13.524 21.72h348.584c13.33 0 29.12-9.77 34.988-21.72l93.725-189.91c5.89-11.95-.17-21.743-13.543-21.743z"/>
  </g>
</svg>
