<svg xmlns="http://www.w3.org/2000/svg" viewBox="0 0 100 100">
  <path d="M96.456 2.028C95.912.45 94.208-.38 92.652.168c-1.557.55-2.38 2.273-1.837 3.85 4.6 13.35-4.53 23.317-11.485 28.657l-2.817-4.072c-.942-1.36-3.058-2.495-4.7-2.52l-15.776.072c-1.64-.026-4.085.735-5.43 1.69L4.123 60.785C1.873 62.38 1.323 65.52 2.9 67.8l21.127 30.54c1.577 2.28 4.11 2.007 6.362.412l46.48-32.94c1.345-.956 2.885-3.02 3.426-4.59l4.94-15.732c.538-1.57.21-3.97-.733-5.33l-1.717-2.482c9.35-7.227 19.053-20.013 13.668-35.65zM74.83 48.808c-3.604 2.552-8.57 1.665-11.092-1.98-2.523-3.648-1.648-8.672 1.957-11.227 2.86-2.024 6.573-1.876 9.246.09-1.343.82-2.266 1.29-2.442 1.377-1.49.712-2.127 2.512-1.426 4.02.51 1.095 1.585 1.736 2.706 1.736.426 0 .86-.093 1.27-.29.96-.456 1.99-1.008 3.065-1.65.486 2.965-.683 6.088-3.28 7.928z" fill="#030104"/>
</svg>
